<mxfile host="app.diagrams.net" modified="2023-11-15T02:10:43.388Z" agent="Mozilla/5.0 (Windows NT 10.0; Win64; x64) AppleWebKit/537.36 (KHTML, like Gecko) Chrome/119.0.0.0 Safari/537.36" etag="vOHjcmjBMnXElyiGI6hn" version="22.1.1" type="device">
  <diagram id="C5RBs43oDa-KdzZeNtuy" name="Page-1">
    <mxGraphModel dx="1195" dy="632" grid="1" gridSize="10" guides="1" tooltips="1" connect="1" arrows="1" fold="1" page="1" pageScale="1" pageWidth="1169" pageHeight="827" math="0" shadow="0">
      <root>
        <mxCell id="WIyWlLk6GJQsqaUBKTNV-0" />
        <mxCell id="WIyWlLk6GJQsqaUBKTNV-1" parent="WIyWlLk6GJQsqaUBKTNV-0" />
        <mxCell id="979sxYHgOyVCNlJxATBu-0" value="QuestionWorkspace" style="rounded=0;whiteSpace=wrap;html=1;" parent="WIyWlLk6GJQsqaUBKTNV-1" vertex="1">
          <mxGeometry x="520" y="30" width="116.11" height="40.8" as="geometry" />
        </mxCell>
        <mxCell id="F5AYVyZlXqpGjB5M085l-21" style="edgeStyle=orthogonalEdgeStyle;rounded=0;orthogonalLoop=1;jettySize=auto;html=1;exitX=0.5;exitY=1;exitDx=0;exitDy=0;entryX=0.5;entryY=0;entryDx=0;entryDy=0;dashed=1;" edge="1" parent="WIyWlLk6GJQsqaUBKTNV-1" source="979sxYHgOyVCNlJxATBu-1" target="F5AYVyZlXqpGjB5M085l-19">
          <mxGeometry relative="1" as="geometry">
            <Array as="points">
              <mxPoint x="889" y="150" />
              <mxPoint x="1085" y="150" />
            </Array>
          </mxGeometry>
        </mxCell>
        <mxCell id="F5AYVyZlXqpGjB5M085l-22" value="" style="edgeStyle=orthogonalEdgeStyle;rounded=0;orthogonalLoop=1;jettySize=auto;html=1;dashed=1;" edge="1" parent="WIyWlLk6GJQsqaUBKTNV-1" source="979sxYHgOyVCNlJxATBu-1" target="F5AYVyZlXqpGjB5M085l-20">
          <mxGeometry relative="1" as="geometry" />
        </mxCell>
        <mxCell id="F5AYVyZlXqpGjB5M085l-23" style="edgeStyle=orthogonalEdgeStyle;rounded=0;orthogonalLoop=1;jettySize=auto;html=1;exitX=0.5;exitY=1;exitDx=0;exitDy=0;entryX=0.5;entryY=0;entryDx=0;entryDy=0;dashed=1;" edge="1" parent="WIyWlLk6GJQsqaUBKTNV-1" source="979sxYHgOyVCNlJxATBu-1" target="F5AYVyZlXqpGjB5M085l-18">
          <mxGeometry relative="1" as="geometry">
            <Array as="points">
              <mxPoint x="889" y="150" />
              <mxPoint x="802" y="150" />
              <mxPoint x="715" y="149" />
            </Array>
          </mxGeometry>
        </mxCell>
        <mxCell id="979sxYHgOyVCNlJxATBu-1" value="CodeEditor" style="rounded=0;whiteSpace=wrap;html=1;" parent="WIyWlLk6GJQsqaUBKTNV-1" vertex="1">
          <mxGeometry x="833.7735849056604" y="91.20000000000002" width="109.81132075471699" height="40.800000000000004" as="geometry" />
        </mxCell>
        <mxCell id="979sxYHgOyVCNlJxATBu-2" style="edgeStyle=orthogonalEdgeStyle;rounded=0;orthogonalLoop=1;jettySize=auto;html=1;exitX=1;exitY=0.5;exitDx=0;exitDy=0;dashed=1;" parent="WIyWlLk6GJQsqaUBKTNV-1" source="979sxYHgOyVCNlJxATBu-0" target="979sxYHgOyVCNlJxATBu-1" edge="1">
          <mxGeometry relative="1" as="geometry" />
        </mxCell>
        <mxCell id="979sxYHgOyVCNlJxATBu-4" value="ChatWidget" style="rounded=0;whiteSpace=wrap;html=1;" parent="WIyWlLk6GJQsqaUBKTNV-1" vertex="1">
          <mxGeometry x="522.6415094339623" y="91.20000000000002" width="109.81132075471699" height="40.800000000000004" as="geometry" />
        </mxCell>
        <mxCell id="979sxYHgOyVCNlJxATBu-8" style="edgeStyle=orthogonalEdgeStyle;rounded=0;orthogonalLoop=1;jettySize=auto;html=1;exitX=0.5;exitY=1;exitDx=0;exitDy=0;entryX=0.5;entryY=0;entryDx=0;entryDy=0;dashed=1;" parent="WIyWlLk6GJQsqaUBKTNV-1" source="979sxYHgOyVCNlJxATBu-0" target="979sxYHgOyVCNlJxATBu-4" edge="1">
          <mxGeometry relative="1" as="geometry" />
        </mxCell>
        <mxCell id="F5AYVyZlXqpGjB5M085l-12" style="edgeStyle=orthogonalEdgeStyle;rounded=0;orthogonalLoop=1;jettySize=auto;html=1;exitX=0.5;exitY=1;exitDx=0;exitDy=0;entryX=0.5;entryY=0;entryDx=0;entryDy=0;dashed=1;" edge="1" parent="WIyWlLk6GJQsqaUBKTNV-1" source="979sxYHgOyVCNlJxATBu-9" target="F5AYVyZlXqpGjB5M085l-8">
          <mxGeometry relative="1" as="geometry" />
        </mxCell>
        <mxCell id="F5AYVyZlXqpGjB5M085l-13" style="edgeStyle=orthogonalEdgeStyle;rounded=0;orthogonalLoop=1;jettySize=auto;html=1;exitX=0.5;exitY=1;exitDx=0;exitDy=0;entryX=0.5;entryY=0;entryDx=0;entryDy=0;dashed=1;" edge="1" parent="WIyWlLk6GJQsqaUBKTNV-1" source="979sxYHgOyVCNlJxATBu-9" target="F5AYVyZlXqpGjB5M085l-10">
          <mxGeometry relative="1" as="geometry">
            <Array as="points">
              <mxPoint x="276" y="150" />
              <mxPoint x="140" y="150" />
            </Array>
          </mxGeometry>
        </mxCell>
        <mxCell id="F5AYVyZlXqpGjB5M085l-14" style="edgeStyle=orthogonalEdgeStyle;rounded=0;orthogonalLoop=1;jettySize=auto;html=1;exitX=0.5;exitY=1;exitDx=0;exitDy=0;entryX=0.5;entryY=0;entryDx=0;entryDy=0;dashed=1;" edge="1" parent="WIyWlLk6GJQsqaUBKTNV-1" source="979sxYHgOyVCNlJxATBu-9" target="F5AYVyZlXqpGjB5M085l-7">
          <mxGeometry relative="1" as="geometry">
            <Array as="points">
              <mxPoint x="276" y="150" />
              <mxPoint x="418" y="150" />
            </Array>
          </mxGeometry>
        </mxCell>
        <mxCell id="979sxYHgOyVCNlJxATBu-9" value="QuestionDescriptionPanel" style="rounded=0;whiteSpace=wrap;html=1;" parent="WIyWlLk6GJQsqaUBKTNV-1" vertex="1">
          <mxGeometry x="202.35849056603774" y="91.20000000000002" width="146.41509433962267" height="40.800000000000004" as="geometry" />
        </mxCell>
        <mxCell id="979sxYHgOyVCNlJxATBu-10" style="edgeStyle=orthogonalEdgeStyle;rounded=0;orthogonalLoop=1;jettySize=auto;html=1;exitX=0;exitY=0.5;exitDx=0;exitDy=0;entryX=0.5;entryY=0;entryDx=0;entryDy=0;dashed=1;" parent="WIyWlLk6GJQsqaUBKTNV-1" source="979sxYHgOyVCNlJxATBu-0" target="979sxYHgOyVCNlJxATBu-9" edge="1">
          <mxGeometry relative="1" as="geometry" />
        </mxCell>
        <mxCell id="F5AYVyZlXqpGjB5M085l-0" value="ChatWindow" style="rounded=0;whiteSpace=wrap;html=1;" vertex="1" parent="WIyWlLk6GJQsqaUBKTNV-1">
          <mxGeometry x="523.1515094339622" y="169.2" width="109.81132075471699" height="40.800000000000004" as="geometry" />
        </mxCell>
        <mxCell id="F5AYVyZlXqpGjB5M085l-1" style="edgeStyle=orthogonalEdgeStyle;rounded=0;orthogonalLoop=1;jettySize=auto;html=1;exitX=0.5;exitY=1;exitDx=0;exitDy=0;dashed=1;" edge="1" parent="WIyWlLk6GJQsqaUBKTNV-1" source="979sxYHgOyVCNlJxATBu-4" target="F5AYVyZlXqpGjB5M085l-0">
          <mxGeometry relative="1" as="geometry" />
        </mxCell>
        <mxCell id="F5AYVyZlXqpGjB5M085l-6" style="edgeStyle=orthogonalEdgeStyle;rounded=0;orthogonalLoop=1;jettySize=auto;html=1;exitX=0.5;exitY=1;exitDx=0;exitDy=0;entryX=1;entryY=0.5;entryDx=0;entryDy=0;dashed=1;" edge="1" parent="WIyWlLk6GJQsqaUBKTNV-1" source="F5AYVyZlXqpGjB5M085l-4" target="979sxYHgOyVCNlJxATBu-1">
          <mxGeometry relative="1" as="geometry" />
        </mxCell>
        <mxCell id="F5AYVyZlXqpGjB5M085l-4" value="SessionCodeEditor" style="rounded=0;whiteSpace=wrap;html=1;" vertex="1" parent="WIyWlLk6GJQsqaUBKTNV-1">
          <mxGeometry x="980.1886792452831" y="50.400000000000006" width="109.81132075471699" height="40.800000000000004" as="geometry" />
        </mxCell>
        <mxCell id="F5AYVyZlXqpGjB5M085l-5" style="edgeStyle=orthogonalEdgeStyle;rounded=0;orthogonalLoop=1;jettySize=auto;html=1;exitX=1;exitY=0.5;exitDx=0;exitDy=0;entryX=0;entryY=0.5;entryDx=0;entryDy=0;dashed=1;" edge="1" parent="WIyWlLk6GJQsqaUBKTNV-1" source="979sxYHgOyVCNlJxATBu-0" target="F5AYVyZlXqpGjB5M085l-4">
          <mxGeometry relative="1" as="geometry">
            <Array as="points">
              <mxPoint x="888.6792452830189" y="50.400000000000006" />
              <mxPoint x="888.6792452830189" y="70.80000000000001" />
            </Array>
          </mxGeometry>
        </mxCell>
        <mxCell id="F5AYVyZlXqpGjB5M085l-7" value="DescriptionContent" style="rounded=0;whiteSpace=wrap;html=1;" vertex="1" parent="WIyWlLk6GJQsqaUBKTNV-1">
          <mxGeometry x="360" y="169.2" width="116.13" height="40.8" as="geometry" />
        </mxCell>
        <mxCell id="F5AYVyZlXqpGjB5M085l-17" value="" style="edgeStyle=orthogonalEdgeStyle;rounded=0;orthogonalLoop=1;jettySize=auto;html=1;dashed=1;" edge="1" parent="WIyWlLk6GJQsqaUBKTNV-1" source="F5AYVyZlXqpGjB5M085l-8" target="F5AYVyZlXqpGjB5M085l-15">
          <mxGeometry relative="1" as="geometry" />
        </mxCell>
        <mxCell id="F5AYVyZlXqpGjB5M085l-8" value="SubmissionContent" style="rounded=0;whiteSpace=wrap;html=1;" vertex="1" parent="WIyWlLk6GJQsqaUBKTNV-1">
          <mxGeometry x="215.57" y="169.2" width="120" height="40.8" as="geometry" />
        </mxCell>
        <mxCell id="F5AYVyZlXqpGjB5M085l-10" value="PanelHeader" style="rounded=0;whiteSpace=wrap;html=1;" vertex="1" parent="WIyWlLk6GJQsqaUBKTNV-1">
          <mxGeometry x="80" y="169.2" width="120" height="40.8" as="geometry" />
        </mxCell>
        <mxCell id="F5AYVyZlXqpGjB5M085l-15" value="HistoryTable" style="rounded=0;whiteSpace=wrap;html=1;" vertex="1" parent="WIyWlLk6GJQsqaUBKTNV-1">
          <mxGeometry x="215.57" y="250" width="120" height="40.8" as="geometry" />
        </mxCell>
        <mxCell id="F5AYVyZlXqpGjB5M085l-18" value="EditorNav" style="rounded=0;whiteSpace=wrap;html=1;" vertex="1" parent="WIyWlLk6GJQsqaUBKTNV-1">
          <mxGeometry x="660.0015094339623" y="169.2" width="109.81132075471699" height="40.800000000000004" as="geometry" />
        </mxCell>
        <mxCell id="F5AYVyZlXqpGjB5M085l-19" value="EditorFooter" style="rounded=0;whiteSpace=wrap;html=1;" vertex="1" parent="WIyWlLk6GJQsqaUBKTNV-1">
          <mxGeometry x="1030.0015094339624" y="169.2" width="109.81132075471699" height="40.800000000000004" as="geometry" />
        </mxCell>
        <mxCell id="F5AYVyZlXqpGjB5M085l-27" style="edgeStyle=orthogonalEdgeStyle;rounded=0;orthogonalLoop=1;jettySize=auto;html=1;exitX=0.5;exitY=1;exitDx=0;exitDy=0;entryX=0.5;entryY=0;entryDx=0;entryDy=0;dashed=1;" edge="1" parent="WIyWlLk6GJQsqaUBKTNV-1" source="F5AYVyZlXqpGjB5M085l-20" target="F5AYVyZlXqpGjB5M085l-26">
          <mxGeometry relative="1" as="geometry">
            <Array as="points">
              <mxPoint x="889" y="230" />
              <mxPoint x="1085" y="230" />
            </Array>
          </mxGeometry>
        </mxCell>
        <mxCell id="F5AYVyZlXqpGjB5M085l-28" style="edgeStyle=orthogonalEdgeStyle;rounded=0;orthogonalLoop=1;jettySize=auto;html=1;exitX=0.5;exitY=1;exitDx=0;exitDy=0;entryX=0.5;entryY=0;entryDx=0;entryDy=0;dashed=1;" edge="1" parent="WIyWlLk6GJQsqaUBKTNV-1" source="F5AYVyZlXqpGjB5M085l-20" target="F5AYVyZlXqpGjB5M085l-25">
          <mxGeometry relative="1" as="geometry" />
        </mxCell>
        <mxCell id="F5AYVyZlXqpGjB5M085l-29" style="edgeStyle=orthogonalEdgeStyle;rounded=0;orthogonalLoop=1;jettySize=auto;html=1;exitX=0.5;exitY=1;exitDx=0;exitDy=0;entryX=0.5;entryY=0;entryDx=0;entryDy=0;dashed=1;" edge="1" parent="WIyWlLk6GJQsqaUBKTNV-1" source="F5AYVyZlXqpGjB5M085l-20" target="F5AYVyZlXqpGjB5M085l-24">
          <mxGeometry relative="1" as="geometry">
            <Array as="points">
              <mxPoint x="889" y="230" />
              <mxPoint x="715" y="230" />
            </Array>
          </mxGeometry>
        </mxCell>
        <mxCell id="F5AYVyZlXqpGjB5M085l-20" value="ExecPanel" style="rounded=0;whiteSpace=wrap;html=1;" vertex="1" parent="WIyWlLk6GJQsqaUBKTNV-1">
          <mxGeometry x="833.7715094339624" y="169.2" width="109.81132075471699" height="40.800000000000004" as="geometry" />
        </mxCell>
        <mxCell id="F5AYVyZlXqpGjB5M085l-34" style="edgeStyle=orthogonalEdgeStyle;rounded=0;orthogonalLoop=1;jettySize=auto;html=1;exitX=0.5;exitY=1;exitDx=0;exitDy=0;entryX=0.5;entryY=0;entryDx=0;entryDy=0;dashed=1;" edge="1" parent="WIyWlLk6GJQsqaUBKTNV-1" source="F5AYVyZlXqpGjB5M085l-24" target="F5AYVyZlXqpGjB5M085l-30">
          <mxGeometry relative="1" as="geometry" />
        </mxCell>
        <mxCell id="F5AYVyZlXqpGjB5M085l-35" style="edgeStyle=orthogonalEdgeStyle;rounded=0;orthogonalLoop=1;jettySize=auto;html=1;exitX=0.5;exitY=1;exitDx=0;exitDy=0;entryX=0.5;entryY=0;entryDx=0;entryDy=0;dashed=1;" edge="1" parent="WIyWlLk6GJQsqaUBKTNV-1" source="F5AYVyZlXqpGjB5M085l-24" target="F5AYVyZlXqpGjB5M085l-31">
          <mxGeometry relative="1" as="geometry" />
        </mxCell>
        <mxCell id="F5AYVyZlXqpGjB5M085l-24" value="TestCaseContent" style="rounded=0;whiteSpace=wrap;html=1;" vertex="1" parent="WIyWlLk6GJQsqaUBKTNV-1">
          <mxGeometry x="660.0015094339624" y="260" width="109.81132075471699" height="40.800000000000004" as="geometry" />
        </mxCell>
        <mxCell id="F5AYVyZlXqpGjB5M085l-36" style="edgeStyle=orthogonalEdgeStyle;rounded=0;orthogonalLoop=1;jettySize=auto;html=1;exitX=0.5;exitY=1;exitDx=0;exitDy=0;entryX=0.5;entryY=0;entryDx=0;entryDy=0;dashed=1;" edge="1" parent="WIyWlLk6GJQsqaUBKTNV-1" source="F5AYVyZlXqpGjB5M085l-25" target="F5AYVyZlXqpGjB5M085l-31">
          <mxGeometry relative="1" as="geometry" />
        </mxCell>
        <mxCell id="F5AYVyZlXqpGjB5M085l-37" style="edgeStyle=orthogonalEdgeStyle;rounded=0;orthogonalLoop=1;jettySize=auto;html=1;exitX=0.5;exitY=1;exitDx=0;exitDy=0;entryX=0.5;entryY=0;entryDx=0;entryDy=0;dashed=1;" edge="1" parent="WIyWlLk6GJQsqaUBKTNV-1" source="F5AYVyZlXqpGjB5M085l-25" target="F5AYVyZlXqpGjB5M085l-32">
          <mxGeometry relative="1" as="geometry" />
        </mxCell>
        <mxCell id="F5AYVyZlXqpGjB5M085l-38" style="edgeStyle=orthogonalEdgeStyle;rounded=0;orthogonalLoop=1;jettySize=auto;html=1;exitX=0.5;exitY=1;exitDx=0;exitDy=0;entryX=0.5;entryY=0;entryDx=0;entryDy=0;dashed=1;" edge="1" parent="WIyWlLk6GJQsqaUBKTNV-1" source="F5AYVyZlXqpGjB5M085l-25" target="F5AYVyZlXqpGjB5M085l-33">
          <mxGeometry relative="1" as="geometry" />
        </mxCell>
        <mxCell id="F5AYVyZlXqpGjB5M085l-25" value="ResultCaseContent" style="rounded=0;whiteSpace=wrap;html=1;" vertex="1" parent="WIyWlLk6GJQsqaUBKTNV-1">
          <mxGeometry x="833.7715094339624" y="260" width="109.81132075471699" height="40.800000000000004" as="geometry" />
        </mxCell>
        <mxCell id="F5AYVyZlXqpGjB5M085l-26" value="ExecHeader" style="rounded=0;whiteSpace=wrap;html=1;" vertex="1" parent="WIyWlLk6GJQsqaUBKTNV-1">
          <mxGeometry x="1030.0015094339624" y="260" width="109.81132075471699" height="40.800000000000004" as="geometry" />
        </mxCell>
        <mxCell id="F5AYVyZlXqpGjB5M085l-30" value="TestCaseBox" style="rounded=0;whiteSpace=wrap;html=1;" vertex="1" parent="WIyWlLk6GJQsqaUBKTNV-1">
          <mxGeometry x="522.6415094339625" y="340" width="109.81132075471699" height="40.800000000000004" as="geometry" />
        </mxCell>
        <mxCell id="F5AYVyZlXqpGjB5M085l-31" value="TestCaseChip" style="rounded=0;whiteSpace=wrap;html=1;" vertex="1" parent="WIyWlLk6GJQsqaUBKTNV-1">
          <mxGeometry x="660.0015094339625" y="340" width="109.81132075471699" height="40.800000000000004" as="geometry" />
        </mxCell>
        <mxCell id="F5AYVyZlXqpGjB5M085l-40" style="edgeStyle=orthogonalEdgeStyle;rounded=0;orthogonalLoop=1;jettySize=auto;html=1;exitX=0.5;exitY=1;exitDx=0;exitDy=0;entryX=0.5;entryY=0;entryDx=0;entryDy=0;dashed=1;" edge="1" parent="WIyWlLk6GJQsqaUBKTNV-1" source="F5AYVyZlXqpGjB5M085l-32" target="F5AYVyZlXqpGjB5M085l-39">
          <mxGeometry relative="1" as="geometry" />
        </mxCell>
        <mxCell id="F5AYVyZlXqpGjB5M085l-32" value="OutputWindow" style="rounded=0;whiteSpace=wrap;html=1;" vertex="1" parent="WIyWlLk6GJQsqaUBKTNV-1">
          <mxGeometry x="833.7715094339625" y="340" width="109.81132075471699" height="40.800000000000004" as="geometry" />
        </mxCell>
        <mxCell id="F5AYVyZlXqpGjB5M085l-33" value="OutputMetrics" style="rounded=0;whiteSpace=wrap;html=1;" vertex="1" parent="WIyWlLk6GJQsqaUBKTNV-1">
          <mxGeometry x="1030.0015094339624" y="340" width="109.81132075471699" height="40.800000000000004" as="geometry" />
        </mxCell>
        <mxCell id="F5AYVyZlXqpGjB5M085l-39" value="OutputBox" style="rounded=0;whiteSpace=wrap;html=1;" vertex="1" parent="WIyWlLk6GJQsqaUBKTNV-1">
          <mxGeometry x="833.7715094339625" y="410" width="109.81132075471699" height="40.800000000000004" as="geometry" />
        </mxCell>
      </root>
    </mxGraphModel>
  </diagram>
</mxfile>
